<svg data-v-423bf9ae="" xmlns="http://www.w3.org/2000/svg" viewBox="0 0 292.1045090623217 60" class="font"><!----><!----><!----><g data-v-423bf9ae="" id="6d2a3e45-e50d-4e34-b6f6-93b79fc5a6ae" fill="black" transform="matrix(5.493164121332939,0,0,5.493164121332939,3.1091283613039025,-28.43994135275421)"><path d="M3.61 11.38L3.61 11.38L3.61 11.38Q3.51 10.75 3.42 10.07L3.42 10.07L3.42 10.07Q3.32 9.39 3.23 8.77L3.23 8.77L3.23 8.77Q3.14 8.15 3.07 7.62L3.07 7.62L3.07 7.62Q3.00 7.10 2.95 6.78L2.95 6.78L2.95 6.78Q2.90 6.36 2.79 6.14L2.79 6.14L2.79 6.14Q2.69 5.92 2.44 5.78L2.44 5.78L2.44 5.78Q2.13 5.59 1.84 5.46L1.84 5.46L1.84 5.46Q1.55 5.33 1.26 5.22L1.26 5.22L1.26 5.22Q1.02 5.14 0.87 5.22L0.87 5.22L0.87 5.22Q0.71 5.31 0.64 5.63L0.64 5.63L0.64 5.63Q0.53 6.22 0.41 7L0.41 7L0.41 7Q0.28 7.78 0.16 8.66L0.16 8.66L0.16 8.66Q0.04 9.53-0.08 10.42L-0.08 10.42L-0.08 10.42Q-0.20 11.31-0.29 12.11L-0.29 12.11L-0.29 12.11Q-0.38 12.91-0.45 13.54L-0.45 13.54L-0.45 13.54Q-0.52 14.18-0.55 14.55L-0.55 14.55L-0.55 14.55Q-0.59 14.91-0.53 15.11L-0.53 15.11L-0.53 15.11Q-0.46 15.32-0.27 15.47L-0.27 15.47L-0.27 15.47Q-0.07 15.67 0.16 15.76L0.16 15.76L0.16 15.76Q0.39 15.85 0.62 15.93L0.62 15.93L0.62 15.93Q0.85 16.03 0.95 15.97L0.95 15.97L0.95 15.97Q1.04 15.90 1.06 15.67L1.06 15.67L1.06 15.67Q1.12 15.16 1.21 14.50L1.21 14.50L1.21 14.50Q1.30 13.85 1.41 13.10L1.41 13.10L1.41 13.10Q1.51 12.36 1.63 11.56L1.63 11.56L1.63 11.56Q1.75 10.75 1.86 9.97L1.86 9.97L1.86 9.97Q1.97 10.63 2.10 11.28L2.10 11.28L2.10 11.28Q2.23 11.94 2.35 12.57L2.35 12.57L2.35 12.57Q2.48 13.19 2.61 13.73L2.61 13.73L2.61 13.73Q2.74 14.28 2.87 14.70L2.87 14.70L2.87 14.70Q3.04 15.30 3.44 15.54L3.44 15.54L3.44 15.54Q3.67 15.65 3.89 15.74L3.89 15.74L3.89 15.74Q4.10 15.83 4.33 15.90L4.33 15.90L4.33 15.90Q4.83 16.07 4.87 15.54L4.87 15.54L4.87 15.54Q5.00 14.57 5.16 13.38L5.16 13.38L5.16 13.38Q5.32 12.18 5.49 10.96L5.49 10.96L5.49 10.96Q5.66 9.74 5.83 8.60L5.83 8.60L5.83 8.60Q6.01 7.46 6.16 6.61L6.16 6.61L6.16 6.61Q6.22 6.31 6.17 6.11L6.17 6.11L6.17 6.11Q6.13 5.91 5.89 5.71L5.89 5.71L5.89 5.71Q5.60 5.47 5.43 5.39L5.43 5.39L5.43 5.39Q5.26 5.31 5.01 5.22L5.01 5.22L5.01 5.22Q4.76 5.14 4.63 5.21L4.63 5.21L4.63 5.21Q4.49 5.29 4.44 5.60L4.44 5.60L4.44 5.60Q4.23 6.79 4.00 8.28L4.00 8.28L4.00 8.28Q3.77 9.77 3.61 11.38ZM7.01 7.56L6.92 7.67L6.06 14.14L6.06 14.29L6.06 14.29Q6.06 14.57 6.13 14.77L6.13 14.77L6.13 14.77Q6.20 14.97 6.31 15.12L6.31 15.12L6.31 15.12Q6.47 15.32 6.57 15.44L6.57 15.44L6.57 15.44Q6.68 15.57 6.82 15.71L6.82 15.71L6.82 15.71Q6.90 15.81 7.03 15.88L7.03 15.88L7.03 15.88Q7.15 15.95 7.32 15.95L7.32 15.95L7.32 15.95Q7.39 15.95 7.49 15.93L7.49 15.93L7.49 15.93Q7.59 15.92 7.70 15.86L7.70 15.86L7.69 15.88L7.69 15.88Q8.13 15.75 8.62 15.61L8.62 15.61L8.62 15.61Q9.11 15.47 9.59 15.33L9.59 15.33L9.59 15.33Q9.79 15.26 9.86 15.19L9.86 15.19L9.86 15.19Q9.94 15.12 9.94 14.94L9.94 14.94L9.94 14.94Q9.94 14.87 9.93 14.83L9.93 14.83L9.93 14.83Q9.93 14.80 9.91 14.73L9.91 14.73L9.91 14.73Q9.88 14.67 9.87 14.60L9.87 14.60L9.87 14.60Q9.86 14.52 9.83 14.46L9.83 14.46L9.84 14.48L9.84 14.48Q9.81 14.36 9.77 14.24L9.77 14.24L9.77 14.24Q9.73 14.11 9.63 13.89L9.63 13.89L9.63 13.89Q9.49 13.50 9.13 13.50L9.13 13.50L9.13 13.50Q9.10 13.50 9.06 13.50L9.06 13.50L9.06 13.50Q9.02 13.51 8.99 13.51L8.99 13.51L8.99 13.51Q8.67 13.54 8.40 13.57L8.40 13.57L8.40 13.57Q8.13 13.61 7.85 13.68L7.85 13.68L7.87 13.65L7.87 13.65Q7.90 13.44 7.94 13.22L7.94 13.22L7.94 13.22Q7.98 13.01 8.02 12.77L8.02 12.77L8.02 12.77Q8.36 12.66 8.71 12.57L8.71 12.57L8.71 12.57Q9.06 12.49 9.42 12.39L9.42 12.39L9.42 12.39Q9.49 12.38 9.55 12.36L9.55 12.36L9.55 12.36Q9.62 12.35 9.69 12.33L9.69 12.33L9.69 12.33Q9.87 12.28 9.95 12.21L9.95 12.21L9.95 12.21Q10.04 12.14 10.04 11.96L10.04 11.96L10.04 11.96Q10.04 11.86 9.98 11.70L9.98 11.70L10.00 11.72L10.00 11.72Q9.95 11.51 9.91 11.32L9.91 11.32L9.91 11.32Q9.86 11.13 9.74 10.91L9.74 10.91L9.74 10.92L9.74 10.92Q9.66 10.68 9.53 10.60L9.53 10.60L9.53 10.60Q9.41 10.51 9.20 10.51L9.20 10.51L9.13 10.51L9.13 10.51Q8.93 10.53 8.76 10.53L8.76 10.53L8.76 10.53Q8.61 10.53 8.46 10.56L8.46 10.56L8.46 10.56Q8.53 10.28 8.58 10.00L8.58 10.00L8.58 10.00Q8.64 9.73 8.69 9.46L8.69 9.46L8.69 9.46Q8.72 9.35 8.74 9.25L8.74 9.25L8.74 9.25Q8.75 9.14 8.78 9.03L8.78 9.03L8.78 9.03Q9.09 8.96 9.36 8.92L9.36 8.92L9.36 8.92Q9.63 8.88 9.91 8.83L9.91 8.83L9.91 8.83Q10.04 8.81 10.17 8.80L10.17 8.80L10.17 8.80Q10.30 8.79 10.42 8.76L10.42 8.76L10.42 8.76Q10.63 8.74 10.71 8.64L10.71 8.64L10.71 8.64Q10.79 8.55 10.79 8.36L10.79 8.36L10.79 8.23L10.79 8.23Q10.78 8.20 10.77 8.13L10.77 8.13L10.77 8.13Q10.75 8.05 10.74 8.02L10.74 8.02L10.75 8.04L10.75 8.04Q10.72 7.88 10.68 7.73L10.68 7.73L10.68 7.73Q10.64 7.59 10.56 7.38L10.56 7.38L10.56 7.39L10.56 7.39Q10.42 6.92 9.98 6.92L9.98 6.92L9.93 6.92L9.93 6.92Q9.16 6.96 8.38 7.16L8.38 7.16L8.38 7.16Q7.60 7.36 7.01 7.56L7.01 7.56ZM15.41 8.68L15.43 8.68L15.43 8.68Q15.62 8.65 15.71 8.58L15.71 8.58L15.71 8.58Q15.79 8.51 15.79 8.36L15.79 8.36L15.79 8.36Q15.79 8.25 15.79 8.20L15.79 8.20L15.79 8.20Q15.78 8.16 15.76 8.09L15.76 8.09L15.76 8.09Q15.71 7.88 15.62 7.65L15.62 7.65L15.62 7.65Q15.53 7.42 15.36 7.18L15.36 7.18L15.36 7.20L15.36 7.20Q15.26 7.04 15.14 6.97L15.14 6.97L15.14 6.97Q15.02 6.90 14.78 6.90L14.78 6.90L14.78 6.90Q14.39 6.93 13.90 6.97L13.90 6.97L13.90 6.97Q13.41 7.01 12.91 7.08L12.91 7.08L12.91 7.08Q12.40 7.15 11.93 7.24L11.93 7.24L11.93 7.24Q11.45 7.32 11.07 7.42L11.07 7.42L11.07 7.42Q10.92 7.49 10.84 7.55L10.84 7.55L10.84 7.55Q10.75 7.60 10.75 7.76L10.75 7.76L10.75 7.76Q10.75 7.84 10.81 7.99L10.81 7.99L10.79 7.99L10.79 7.99Q10.86 8.19 10.97 8.48L10.97 8.48L10.97 8.48Q11.07 8.78 11.23 9.00L11.23 9.00L11.21 8.99L11.21 8.99Q11.33 9.17 11.42 9.24L11.42 9.24L11.42 9.24Q11.51 9.31 11.66 9.31L11.66 9.31L11.66 9.31Q11.79 9.31 11.90 9.25L11.90 9.25L11.90 9.25Q11.96 9.23 12.06 9.21L12.06 9.21L12.06 9.21Q12.17 9.20 12.31 9.17L12.31 9.17L12.35 9.17L12.35 9.17Q12.24 9.80 12.13 10.56L12.13 10.56L12.13 10.56Q12.03 11.31 11.93 12.07L11.93 12.07L11.93 12.07Q11.83 12.82 11.75 13.51L11.75 13.51L11.75 13.51Q11.68 14.20 11.65 14.70L11.65 14.70L11.65 14.69L11.65 14.69Q11.63 14.74 11.63 14.80L11.63 14.80L11.63 14.80Q11.63 14.85 11.63 14.91L11.63 14.91L11.63 14.91Q11.63 15.29 11.84 15.48L11.84 15.48L11.84 15.48Q12.04 15.67 12.35 15.81L12.35 15.81L12.35 15.81Q12.38 15.82 12.40 15.83L12.40 15.83L12.40 15.83Q12.42 15.83 12.45 15.85L12.45 15.85L12.45 15.85Q12.59 15.92 12.70 15.97L12.70 15.97L12.70 15.97Q12.81 16.02 12.92 16.02L12.92 16.02L12.92 16.02Q13.08 16.02 13.16 15.93L13.16 15.93L13.16 15.93Q13.24 15.85 13.27 15.62L13.27 15.62L13.27 15.62Q13.37 14.87 13.49 14.04L13.49 14.04L13.49 14.04Q13.61 13.22 13.74 12.37L13.74 12.37L13.74 12.37Q13.87 11.52 14.01 10.68L14.01 10.68L14.01 10.68Q14.15 9.84 14.28 9.07L14.28 9.07L14.28 9.07Q14.28 9.02 14.29 8.95L14.29 8.95L14.29 8.95Q14.31 8.89 14.32 8.82L14.32 8.82L14.32 8.82Q14.43 8.81 14.56 8.80L14.56 8.80L14.56 8.80Q14.69 8.79 14.80 8.76L14.80 8.76L14.80 8.76Q14.95 8.74 15.11 8.72L15.11 8.72L15.11 8.72Q15.26 8.71 15.41 8.68L15.41 8.68ZM17.46 9.60L17.46 9.60L17.46 9.60Q17.49 9.24 17.50 8.97L17.50 8.97L17.50 8.97Q17.51 8.69 17.53 8.53L17.53 8.53L17.53 8.53Q17.53 8.47 17.54 8.41L17.54 8.41L17.54 8.41Q17.54 8.34 17.54 8.29L17.54 8.29L17.54 8.29Q17.54 8.05 17.48 7.83L17.48 7.83L17.48 7.83Q17.42 7.60 17.22 7.45L17.22 7.45L17.22 7.45Q17.04 7.29 16.84 7.22L16.84 7.22L16.84 7.22Q16.65 7.14 16.38 7.07L16.38 7.07L16.38 7.07Q16.34 7.06 16.31 7.05L16.31 7.05L16.31 7.05Q16.28 7.04 16.21 7.04L16.21 7.04L16.21 7.04Q16.02 7.04 15.94 7.17L15.94 7.17L15.94 7.17Q15.86 7.29 15.83 7.57L15.83 7.57L15.83 7.57Q15.81 8.08 15.78 8.69L15.78 8.69L15.78 8.69Q15.75 9.31 15.73 9.98L15.73 9.98L15.73 9.98Q15.71 10.64 15.70 11.32L15.70 11.32L15.70 11.32Q15.69 12.00 15.69 12.64L15.69 12.64L15.69 12.64Q15.69 13.29 15.71 13.87L15.71 13.87L15.71 13.87Q15.72 14.45 15.75 14.90L15.75 14.90L15.75 14.90Q15.78 15.26 15.86 15.44L15.86 15.44L15.86 15.44Q15.93 15.61 16.14 15.72L16.14 15.72L16.14 15.72Q16.34 15.82 16.56 15.90L16.56 15.90L16.56 15.90Q16.79 15.99 17.02 16.04L17.02 16.04L17.02 16.04Q17.07 16.06 17.11 16.07L17.11 16.07L17.11 16.07Q17.15 16.07 17.22 16.07L17.22 16.07L17.22 16.07Q17.36 16.07 17.46 15.97L17.46 15.97L17.46 15.97Q17.57 15.88 17.68 15.62L17.68 15.62L17.68 15.62Q17.75 15.40 17.86 15.08L17.86 15.08L17.86 15.08Q17.96 14.76 18.09 14.38L18.09 14.38L18.09 14.38Q18.21 14.01 18.35 13.62L18.35 13.62L18.35 13.62Q18.49 13.22 18.63 12.81L18.63 12.81L18.63 12.81Q18.66 13.40 18.71 13.96L18.71 13.96L18.71 13.96Q18.76 14.53 18.79 14.87L18.79 14.87L18.79 14.87Q18.82 15.13 18.91 15.36L18.91 15.36L18.91 15.36Q19.01 15.58 19.24 15.69L19.24 15.69L19.24 15.69Q19.26 15.72 19.38 15.76L19.38 15.76L19.38 15.76Q19.49 15.81 19.60 15.85L19.60 15.85L19.60 15.85Q19.70 15.89 19.84 15.94L19.84 15.94L19.84 15.94Q19.98 15.99 20.13 16.04L20.13 16.04L20.13 16.04Q20.16 16.06 20.19 16.06L20.19 16.06L20.19 16.06Q20.22 16.06 20.33 16.06L20.33 16.06L20.33 16.06Q20.68 16.06 20.82 15.65L20.82 15.65L20.82 15.65Q21 14.97 21.27 14L21.27 14L21.27 14Q21.53 13.03 21.83 12.02L21.83 12.02L21.83 12.02Q22.12 11.00 22.41 10.06L22.41 10.06L22.41 10.06Q22.69 9.11 22.92 8.47L22.92 8.47L22.92 8.47Q22.93 8.40 22.95 8.32L22.95 8.32L22.95 8.32Q22.96 8.25 22.96 8.15L22.96 8.15L22.96 8.15Q22.96 7.83 22.76 7.57L22.76 7.57L22.76 7.57Q22.44 7.25 22.11 7.06L22.11 7.06L22.11 7.06Q21.92 6.96 21.80 6.96L21.80 6.96L21.80 6.96Q21.55 6.96 21.43 7.35L21.43 7.35L21.43 7.35Q21.35 7.60 21.20 8.05L21.20 8.05L21.20 8.05Q21.04 8.50 20.87 9.07L20.87 9.07L20.87 9.07Q20.69 9.63 20.49 10.28L20.49 10.28L20.49 10.28Q20.29 10.93 20.09 11.58L20.09 11.58L20.09 11.58Q20.10 11.38 20.11 11.20L20.11 11.20L20.11 11.20Q20.12 11.02 20.13 10.84L20.13 10.84L20.13 10.84Q20.16 10.14 20.18 9.61L20.18 9.61L20.18 9.61Q20.20 9.09 20.20 8.89L20.20 8.89L20.20 8.89Q20.20 8.57 20.16 8.42L20.16 8.42L20.16 8.42Q20.12 8.27 19.87 8.13L19.87 8.13L19.78 8.09L19.78 8.09Q19.63 8.02 19.50 7.96L19.50 7.96L19.50 7.96Q19.38 7.90 19.21 7.84L19.21 7.84L19.24 7.85L19.24 7.85Q19.15 7.83 19.11 7.82L19.11 7.82L19.11 7.82Q19.07 7.81 19.01 7.81L19.01 7.81L19.01 7.81Q18.73 7.81 18.59 8.16L18.59 8.16L18.59 8.16Q18.49 8.39 18.35 8.77L18.35 8.77L18.35 8.77Q18.20 9.16 18.03 9.64L18.03 9.64L18.03 9.64Q17.86 10.12 17.68 10.67L17.68 10.67L17.68 10.67Q17.50 11.21 17.32 11.76L17.32 11.76L17.32 11.76Q17.35 11.19 17.39 10.63L17.39 10.63L17.39 10.63Q17.43 10.08 17.46 9.60ZM26.91 7.66L26.91 7.66L26.91 7.66Q26.66 7.39 26.31 7.22L26.31 7.22L26.31 7.22Q25.96 7.04 25.56 6.97L25.56 6.97L25.56 6.97Q25.52 6.96 25.47 6.96L25.47 6.96L25.47 6.96Q25.41 6.96 25.35 6.96L25.35 6.96L25.35 6.96Q25.07 6.96 24.79 7.08L24.79 7.08L24.79 7.08Q24.51 7.20 24.29 7.43L24.29 7.43L24.29 7.43Q23.90 7.87 23.60 8.46L23.60 8.46L23.60 8.46Q23.30 9.06 23.09 9.73L23.09 9.73L23.09 9.73Q22.88 10.40 22.77 11.12L22.77 11.12L22.77 11.12Q22.67 11.83 22.67 12.52L22.67 12.52L22.67 12.52Q22.67 13.05 22.73 13.54L22.73 13.54L22.73 13.54Q22.79 14.03 22.95 14.46L22.95 14.46L22.93 14.46L22.93 14.46Q23.04 14.78 23.24 15.05L23.24 15.05L23.24 15.05Q23.44 15.32 23.66 15.50L23.66 15.50L23.66 15.50Q23.93 15.69 24.23 15.80L24.23 15.80L24.23 15.80Q24.54 15.90 24.85 15.95L24.85 15.95L24.85 15.95Q24.92 15.96 25.00 15.97L25.00 15.97L25.00 15.97Q25.07 15.97 25.16 15.97L25.16 15.97L25.16 15.97Q25.83 15.97 26.35 15.37L26.35 15.37L26.35 15.37Q26.68 14.91 26.92 14.32L26.92 14.32L26.92 14.32Q27.16 13.73 27.31 13.07L27.31 13.07L27.31 13.07Q27.47 12.40 27.55 11.72L27.55 11.72L27.55 11.72Q27.62 11.03 27.62 10.37L27.62 10.37L27.62 10.37Q27.62 9.65 27.54 9.03L27.54 9.03L27.54 9.03Q27.47 8.60 27.33 8.27L27.33 8.27L27.33 8.27Q27.19 7.94 26.91 7.66ZM25.72 8.76L25.72 8.76L25.72 8.76Q25.82 8.79 25.86 9.14L25.86 9.14L25.86 9.14Q25.90 9.48 25.90 9.97L25.90 9.97L25.90 9.97Q25.90 10.42 25.86 10.91L25.86 10.91L25.86 10.91Q25.82 11.40 25.73 11.83L25.73 11.83L25.73 11.83Q25.65 12.35 25.53 12.80L25.53 12.80L25.53 12.80Q25.41 13.26 25.28 13.59L25.28 13.59L25.28 13.59Q25.14 13.93 25.01 14.12L25.01 14.12L25.01 14.12Q24.88 14.31 24.75 14.31L24.75 14.31L24.75 14.31Q24.72 14.31 24.71 14.29L24.71 14.29L24.71 14.29Q24.57 14.22 24.51 13.89L24.51 13.89L24.51 13.89Q24.46 13.57 24.46 13.09L24.46 13.09L24.46 13.09Q24.46 12.67 24.51 12.20L24.51 12.20L24.51 12.20Q24.56 11.73 24.65 11.28L24.65 11.28L24.65 11.28Q24.74 10.86 24.88 10.42L24.88 10.42L24.88 10.42Q25.02 9.97 25.17 9.60L25.17 9.60L25.17 9.60Q25.31 9.24 25.46 9.00L25.46 9.00L25.46 9.00Q25.61 8.76 25.72 8.76ZM31.21 15.54L31.21 15.54L31.21 15.54Q31.40 15.72 31.56 15.79L31.56 15.79L31.56 15.79Q31.72 15.86 31.88 15.86L31.88 15.86L31.88 15.86Q31.93 15.86 32.02 15.83L32.02 15.83L32.02 15.83Q32.10 15.81 32.20 15.78L32.20 15.78L32.20 15.78Q32.19 15.79 32.24 15.79L32.24 15.79L32.24 15.79Q32.35 15.76 32.46 15.71L32.46 15.71L32.46 15.71Q32.56 15.67 32.69 15.51L32.69 15.51L32.69 15.51Q32.83 15.34 32.83 15.19L32.83 15.19L32.83 15.19Q32.83 15.01 32.66 14.80L32.66 14.80L32.66 14.80Q32.47 14.59 32.26 14.32L32.26 14.32L32.26 14.32Q32.06 14.04 31.86 13.75L31.86 13.75L31.86 13.75Q31.65 13.45 31.47 13.16L31.47 13.16L31.47 13.16Q31.28 12.87 31.11 12.61L31.11 12.61L31.11 12.61Q31.86 12.11 32.40 11.53L32.40 11.53L32.40 11.53Q32.94 10.95 33.17 10.28L33.17 10.28L33.15 10.29L33.15 10.29Q33.21 10.16 33.22 10.03L33.22 10.03L33.22 10.03Q33.24 9.90 33.24 9.74L33.24 9.74L33.24 9.74Q33.24 9.45 33.18 9.18L33.18 9.18L33.18 9.18Q33.04 8.58 32.83 8.18L32.83 8.18L32.83 8.18Q32.62 7.78 32.38 7.45L32.38 7.45L32.38 7.45Q32.14 7.14 31.86 7.02L31.86 7.02L31.86 7.02Q31.57 6.90 31.25 6.90L31.25 6.90L31.25 6.90Q30.70 6.90 30.11 7.18L30.11 7.18L30.11 7.18Q29.53 7.46 28.98 7.78L28.98 7.78L28.98 7.78Q28.87 7.87 28.76 8.23L28.76 8.23L28.76 8.23Q28.66 8.58 28.56 9.11L28.56 9.11L28.56 9.11Q28.46 9.63 28.37 10.28L28.37 10.28L28.37 10.28Q28.28 10.93 28.20 11.60L28.20 11.60L28.20 11.60Q28.11 12.26 28.04 12.89L28.04 12.89L28.04 12.89Q27.97 13.52 27.93 14L27.93 14L27.93 14Q27.90 14.24 27.88 14.43L27.88 14.43L27.88 14.43Q27.86 14.62 27.85 14.74L27.85 14.74L27.85 14.92L27.85 14.92Q27.85 15.18 27.90 15.33L27.90 15.33L27.90 15.33Q27.96 15.48 28.10 15.61L28.10 15.61L28.10 15.61Q28.21 15.72 28.36 15.77L28.36 15.77L28.36 15.77Q28.50 15.82 28.66 15.88L28.66 15.88L28.66 15.88Q28.69 15.88 28.71 15.89L28.71 15.89L28.71 15.89Q28.74 15.90 28.77 15.92L28.77 15.92L28.77 15.92Q28.84 15.95 28.89 15.95L28.89 15.95L28.89 15.95Q28.94 15.96 28.98 15.96L28.98 15.96L28.98 15.96Q29.15 15.96 29.22 15.87L29.22 15.87L29.22 15.87Q29.29 15.78 29.32 15.58L29.32 15.58L29.40 15.04L29.40 15.04Q29.46 14.67 29.51 14.29L29.51 14.29L29.51 14.29Q29.57 13.90 29.64 13.50L29.64 13.50L29.64 13.50Q30.02 14.10 30.45 14.66L30.45 14.66L30.45 14.66Q30.88 15.22 31.21 15.54ZM31.28 8.93L31.28 8.93L31.28 8.93Q31.57 8.93 31.64 9.14L31.64 9.14L31.64 9.14Q31.63 9.11 31.63 9.17L31.63 9.17L31.63 9.17Q31.63 9.34 31.52 9.57L31.52 9.57L31.52 9.57Q31.42 9.80 31.22 10.07L31.22 10.07L31.22 10.07Q31.02 10.33 30.74 10.59L30.74 10.59L30.74 10.59Q30.45 10.85 30.09 11.06L30.09 11.06L30.09 11.06Q30.17 10.64 30.25 10.26L30.25 10.26L30.25 10.26Q30.31 9.98 30.36 9.71L30.36 9.71L30.36 9.71Q30.41 9.44 30.48 9.18L30.48 9.18L30.48 9.18Q30.70 9.04 30.90 8.99L30.90 8.99L30.90 8.99Q31.09 8.93 31.28 8.93ZM37.16 13.20L37.16 13.20L37.16 13.20Q36.92 13.10 36.71 13.10L36.71 13.10L36.71 13.10Q36.22 13.10 35.88 13.62L35.88 13.62L35.88 13.62Q35.43 14.34 35.20 14.34L35.20 14.34L35.20 14.34Q35.17 14.34 35.15 14.32L35.15 14.32L35.15 14.32Q35.04 14.27 34.99 13.97L34.99 13.97L34.99 13.97Q34.93 13.68 34.93 13.23L34.93 13.23L34.93 13.23Q34.93 12.82 34.98 12.36L34.98 12.36L34.98 12.36Q35.03 11.90 35.13 11.44L35.13 11.44L35.13 11.44Q35.21 11.02 35.35 10.54L35.35 10.54L35.35 10.54Q35.49 10.05 35.64 9.64L35.64 9.64L35.64 9.64Q35.80 9.23 35.96 8.95L35.96 8.95L35.96 8.95Q36.12 8.68 36.23 8.65L36.23 8.65L36.23 8.65Q36.32 8.69 36.33 8.90L36.33 8.90L36.33 8.90Q36.34 9.11 36.34 9.37L36.34 9.37L36.34 9.55L36.34 9.55Q36.34 9.59 36.35 9.65L36.35 9.65L36.35 9.65Q36.36 9.72 36.36 9.76L36.36 9.76L36.36 9.76Q36.43 10.26 36.66 10.56L36.66 10.56L36.66 10.56Q36.89 10.86 37.38 11.00L37.38 11.00L37.38 11.00Q37.42 11.02 37.46 11.03L37.46 11.03L37.46 11.03Q37.51 11.03 37.58 11.03L37.58 11.03L37.58 11.03Q37.80 11.03 37.86 10.91L37.86 10.91L37.86 10.91Q37.91 10.78 37.95 10.61L37.95 10.61L37.95 10.61Q38.00 10.37 38.02 10.02L38.02 10.02L38.02 10.02Q38.05 9.67 38.05 9.32L38.05 9.32L38.05 9.32Q38.05 9.20 38.05 9.07L38.05 9.07L38.05 9.07Q38.05 8.95 38.04 8.83L38.04 8.83L38.04 8.83Q38.01 8.46 37.92 8.16L37.92 8.16L37.92 8.16Q37.83 7.87 37.52 7.56L37.52 7.56L37.52 7.56Q37.24 7.32 36.83 7.11L36.83 7.11L36.83 7.11Q36.43 6.89 36.04 6.85L36.04 6.85L35.91 6.85L35.91 6.85Q35.66 6.85 35.38 6.95L35.38 6.95L35.38 6.95Q35.10 7.06 34.82 7.36L34.82 7.36L34.82 7.36Q34.43 7.81 34.11 8.46L34.11 8.46L34.11 8.46Q33.80 9.10 33.57 9.84L33.57 9.84L33.57 9.84Q33.35 10.57 33.23 11.35L33.23 11.35L33.23 11.35Q33.11 12.14 33.11 12.85L33.11 12.85L33.11 12.85Q33.11 13.37 33.17 13.84L33.17 13.84L33.17 13.84Q33.24 14.31 33.39 14.67L33.39 14.67L33.38 14.66L33.38 14.66Q33.47 14.98 33.71 15.25L33.71 15.25L33.71 15.25Q33.94 15.51 34.19 15.67L34.19 15.67L34.30 15.72L34.29 15.72L34.29 15.72Q34.50 15.83 34.76 15.95L34.76 15.95L34.76 15.95Q35.01 16.06 35.32 16.09L35.32 16.09L35.32 16.09Q35.36 16.09 35.41 16.09L35.41 16.09L35.41 16.09Q35.45 16.10 35.49 16.10L35.49 16.10L35.49 16.10Q35.83 16.10 36.14 15.96L36.14 15.96L36.14 15.96Q36.46 15.82 36.67 15.61L36.67 15.61L36.67 15.61Q36.89 15.37 37.10 15.02L37.10 15.02L37.10 15.02Q37.31 14.67 37.44 14.27L37.44 14.27L37.44 14.27Q37.48 14.13 37.51 13.99L37.51 13.99L37.51 13.99Q37.53 13.86 37.53 13.75L37.53 13.75L37.53 13.75Q37.53 13.38 37.16 13.20ZM36.23 8.65L36.25 8.65L36.25 8.65Q36.26 8.65 36.27 8.66L36.27 8.66L36.27 8.66Q36.27 8.67 36.29 8.67L36.29 8.67L36.23 8.65ZM43.20 8.89L43.20 8.89L43.20 8.89Q43.34 8.55 43.34 8.30L43.34 8.30L43.34 8.30Q43.34 8.13 43.26 7.92L43.26 7.92L43.26 7.94L43.26 7.94Q43.06 7.41 42.78 7.08L42.78 7.08L42.80 7.08L42.80 7.08Q42.63 6.89 42.43 6.89L42.43 6.89L42.43 6.89Q42.24 6.89 42.11 7.15L42.11 7.15L42.11 7.14L42.11 7.14Q41.99 7.36 41.79 7.67L41.79 7.67L41.79 7.67Q41.59 7.98 41.37 8.33L41.37 8.33L41.37 8.33Q41.15 8.68 40.89 9.06L40.89 9.06L40.89 9.06Q40.64 9.44 40.39 9.81L40.39 9.81L40.39 9.81Q40.35 9.88 40.31 9.93L40.31 9.93L40.31 9.93Q40.26 9.98 40.24 10.04L40.24 10.04L40.24 10.04Q40.24 10.02 40.24 10.02L40.24 10.02L40.24 10.02Q40.25 10.01 40.25 9.98L40.25 9.98L40.25 9.98Q40.33 9.48 40.41 9.04L40.41 9.04L40.41 9.04Q40.49 8.61 40.57 8.26L40.57 8.26L40.57 8.26Q40.59 8.19 40.59 8.14L40.59 8.14L40.59 8.14Q40.60 8.09 40.60 8.02L40.60 8.02L40.60 8.02Q40.60 7.87 40.53 7.76L40.53 7.76L40.53 7.76Q40.46 7.66 40.31 7.50L40.31 7.50L40.31 7.50Q40.11 7.31 39.86 7.17L39.86 7.17L39.86 7.17Q39.61 7.03 39.40 6.96L39.40 6.96L39.41 6.97L39.41 6.97Q39.34 6.94 39.28 6.92L39.28 6.92L39.28 6.92Q39.21 6.90 39.16 6.90L39.16 6.90L39.16 6.90Q38.86 6.90 38.75 7.35L38.75 7.35L38.75 7.35Q38.67 7.77 38.58 8.37L38.58 8.37L38.58 8.37Q38.49 8.96 38.39 9.65L38.39 9.65L38.39 9.65Q38.29 10.35 38.19 11.07L38.19 11.07L38.19 11.07Q38.09 11.80 38.01 12.49L38.01 12.49L38.01 12.49Q37.93 13.17 37.87 13.76L37.87 13.76L37.87 13.76Q37.81 14.34 37.79 14.71L37.79 14.71L37.79 14.85L37.79 14.85Q37.79 15.25 37.95 15.44L37.95 15.44L37.95 15.44Q38.12 15.64 38.46 15.79L38.46 15.79L38.46 15.79Q38.50 15.81 38.58 15.83L38.58 15.83L38.58 15.83Q38.65 15.86 38.65 15.86L38.65 15.86L38.65 15.86Q38.91 16.00 39.09 16.00L39.09 16.00L39.09 16.00Q39.38 16.00 39.40 15.60L39.40 15.60L39.40 15.60Q39.42 15.40 39.45 15.20L39.45 15.20L39.45 15.20Q39.48 14.99 39.51 14.77L39.51 14.77L39.51 14.77Q39.56 14.25 39.68 13.64L39.68 13.64L39.68 13.64Q39.91 14.13 40.16 14.55L40.16 14.55L40.16 14.55Q40.40 14.98 40.56 15.23L40.56 15.23L40.56 15.23Q40.59 15.29 40.61 15.34L40.61 15.34L40.61 15.34Q40.64 15.39 40.67 15.41L40.67 15.41L40.67 15.41Q40.84 15.67 40.99 15.76L40.99 15.76L40.99 15.76Q41.15 15.86 41.33 15.86L41.33 15.86L41.33 15.86Q41.44 15.86 41.62 15.79L41.62 15.79L41.61 15.81L41.61 15.81Q41.73 15.78 41.89 15.72L41.89 15.72L41.89 15.72Q42.04 15.67 42.15 15.55L42.15 15.55L42.15 15.55Q42.27 15.47 42.33 15.39L42.33 15.39L42.33 15.39Q42.39 15.30 42.39 15.19L42.39 15.19L42.39 15.19Q42.39 15.08 42.25 14.84L42.25 14.84L42.27 14.84L42.27 14.84Q42.14 14.64 41.99 14.36L41.99 14.36L41.99 14.36Q41.83 14.07 41.66 13.74L41.66 13.74L41.66 13.74Q41.50 13.41 41.33 13.06L41.33 13.06L41.33 13.06Q41.16 12.71 41.02 12.39L41.02 12.39L41.02 12.39Q41.33 11.97 41.65 11.51L41.65 11.51L41.65 11.51Q41.97 11.05 42.27 10.58L42.27 10.58L42.27 10.58Q42.56 10.12 42.80 9.69L42.80 9.69L42.80 9.69Q43.05 9.25 43.20 8.89ZM43.82 7.56L43.72 7.67L42.87 14.14L42.87 14.29L42.87 14.29Q42.87 14.57 42.94 14.77L42.94 14.77L42.94 14.77Q43.01 14.97 43.12 15.12L43.12 15.12L43.12 15.12Q43.27 15.32 43.38 15.44L43.38 15.44L43.38 15.44Q43.48 15.57 43.62 15.71L43.62 15.71L43.62 15.71Q43.71 15.81 43.83 15.88L43.83 15.88L43.83 15.88Q43.96 15.95 44.13 15.95L44.13 15.95L44.13 15.95Q44.20 15.95 44.30 15.93L44.30 15.93L44.30 15.93Q44.39 15.92 44.51 15.86L44.51 15.86L44.49 15.88L44.49 15.88Q44.94 15.75 45.43 15.61L45.43 15.61L45.43 15.61Q45.92 15.47 46.40 15.33L46.40 15.33L46.40 15.33Q46.59 15.26 46.67 15.19L46.67 15.19L46.67 15.19Q46.75 15.12 46.75 14.94L46.75 14.94L46.75 14.94Q46.75 14.87 46.74 14.83L46.74 14.83L46.74 14.83Q46.73 14.80 46.72 14.73L46.72 14.73L46.72 14.73Q46.69 14.67 46.68 14.60L46.68 14.60L46.68 14.60Q46.66 14.52 46.63 14.46L46.63 14.46L46.65 14.48L46.65 14.48Q46.62 14.36 46.58 14.24L46.58 14.24L46.58 14.24Q46.54 14.11 46.44 13.89L46.44 13.89L46.44 13.89Q46.30 13.50 45.93 13.50L45.93 13.50L45.93 13.50Q45.91 13.50 45.86 13.50L45.86 13.50L45.86 13.50Q45.82 13.51 45.79 13.51L45.79 13.51L45.79 13.51Q45.47 13.54 45.21 13.57L45.21 13.57L45.21 13.57Q44.94 13.61 44.66 13.68L44.66 13.68L44.67 13.65L44.67 13.65Q44.70 13.44 44.74 13.22L44.74 13.22L44.74 13.22Q44.79 13.01 44.83 12.77L44.83 12.77L44.83 12.77Q45.16 12.66 45.51 12.57L45.51 12.57L45.51 12.57Q45.86 12.49 46.23 12.39L46.23 12.39L46.23 12.39Q46.30 12.38 46.36 12.36L46.36 12.36L46.36 12.36Q46.42 12.35 46.49 12.33L46.49 12.33L46.49 12.33Q46.68 12.28 46.76 12.21L46.76 12.21L46.76 12.21Q46.84 12.14 46.84 11.96L46.84 11.96L46.84 11.96Q46.84 11.86 46.79 11.70L46.79 11.70L46.80 11.72L46.80 11.72Q46.76 11.51 46.71 11.32L46.71 11.32L46.71 11.32Q46.66 11.13 46.55 10.91L46.55 10.91L46.55 10.92L46.55 10.92Q46.47 10.68 46.34 10.60L46.34 10.60L46.34 10.60Q46.21 10.51 46.00 10.51L46.00 10.51L45.93 10.51L45.93 10.51Q45.74 10.53 45.57 10.53L45.57 10.53L45.57 10.53Q45.42 10.53 45.26 10.56L45.26 10.56L45.26 10.56Q45.33 10.28 45.39 10.00L45.39 10.00L45.39 10.00Q45.44 9.73 45.50 9.46L45.50 9.46L45.50 9.46Q45.53 9.35 45.54 9.25L45.54 9.25L45.54 9.25Q45.56 9.14 45.58 9.03L45.58 9.03L45.58 9.03Q45.89 8.96 46.17 8.92L46.17 8.92L46.17 8.92Q46.44 8.88 46.72 8.83L46.72 8.83L46.72 8.83Q46.84 8.81 46.98 8.80L46.98 8.80L46.98 8.80Q47.11 8.79 47.22 8.76L47.22 8.76L47.22 8.76Q47.43 8.74 47.52 8.64L47.52 8.64L47.52 8.64Q47.60 8.55 47.60 8.36L47.60 8.36L47.60 8.23L47.60 8.23Q47.59 8.20 47.57 8.13L47.57 8.13L47.57 8.13Q47.56 8.05 47.54 8.02L47.54 8.02L47.56 8.04L47.56 8.04Q47.53 7.88 47.49 7.73L47.49 7.73L47.49 7.73Q47.45 7.59 47.36 7.38L47.36 7.38L47.36 7.39L47.36 7.39Q47.22 6.92 46.79 6.92L46.79 6.92L46.73 6.92L46.73 6.92Q45.96 6.96 45.19 7.16L45.19 7.16L45.19 7.16Q44.41 7.36 43.82 7.56L43.82 7.56ZM47.96 7.62L47.91 7.71L47.28 13.89L47.28 13.89Q47.26 13.99 47.26 14.08L47.26 14.08L47.26 14.08Q47.26 14.17 47.26 14.24L47.26 14.24L47.26 14.24Q47.26 14.56 47.34 14.73L47.34 14.73L47.34 14.73Q47.42 14.90 47.53 15.06L47.53 15.06L47.53 15.05L47.53 15.05Q47.56 15.11 47.59 15.13L47.59 15.13L47.59 15.13Q47.78 15.37 47.94 15.53L47.94 15.53L47.94 15.53Q48.09 15.68 48.31 15.85L48.31 15.85L48.31 15.85Q48.61 16.07 48.87 16.07L48.87 16.07L48.87 16.07Q49.06 16.07 49.25 15.96L49.25 15.96L49.25 15.96Q50.11 15.61 50.74 15.00L50.74 15.00L50.74 15.00Q51.38 14.39 51.79 13.65L51.79 13.65L51.79 13.65Q52.21 12.91 52.41 12.10L52.41 12.10L52.41 12.10Q52.61 11.28 52.61 10.51L52.61 10.51L52.61 10.51Q52.61 10.02 52.54 9.58L52.54 9.58L52.54 9.58Q52.46 9.13 52.29 8.74L52.29 8.74L52.29 8.74Q51.88 7.73 51.25 7.34L51.25 7.34L51.25 7.34Q50.62 6.94 49.94 6.94L49.94 6.94L49.94 6.94Q49.38 6.94 48.85 7.15L48.85 7.15L48.85 7.15Q48.33 7.35 47.96 7.62L47.96 7.62ZM49.80 9.06L49.80 9.06L49.80 9.06Q49.87 9.03 49.95 9.02L49.95 9.02L49.95 9.02Q50.04 9.00 50.11 9.00L50.11 9.00L50.11 9.00Q50.33 9.00 50.48 9.13L50.48 9.13L50.48 9.13Q50.64 9.25 50.71 9.45L50.71 9.45L50.71 9.45Q50.81 9.72 50.81 10.15L50.81 10.15L50.81 10.29L50.81 10.29Q50.79 10.67 50.69 11.14L50.69 11.14L50.69 11.14Q50.58 11.61 50.37 12.08L50.37 12.08L50.37 12.08Q50.15 12.56 49.81 13.01L49.81 13.01L49.81 13.01Q49.48 13.47 49 13.82L49 13.82L49 13.82Q49.20 12.56 49.38 11.38L49.38 11.38L49.38 11.38Q49.56 10.19 49.80 9.06Z"></path></g><!----><!----></svg>